<svg width="113" height="30" viewBox="0 0 113 30" fill="none" xmlns="http://www.w3.org/2000/svg">
<path d="M52.61 26H47.48L38.9 12.98V26H33.77V4.79H38.9L47.48 17.93V4.79H52.61V26ZM72.0528 17.18C72.0528 17.6 72.0028 18.06 71.9028 18.56H60.2928C60.3528 19.82 60.6728 20.73 61.2528 21.29C61.8328 21.83 62.5728 22.1 63.4728 22.1C64.2328 22.1 64.8628 21.91 65.3628 21.53C65.8628 21.15 66.1928 20.66 66.3528 20.06H71.7828C71.5628 21.24 71.0828 22.3 70.3428 23.24C69.6028 24.16 68.6628 24.89 67.5228 25.43C66.3828 25.95 65.1128 26.21 63.7128 26.21C62.0728 26.21 60.6128 25.87 59.3328 25.19C58.0728 24.49 57.0828 23.49 56.3628 22.19C55.6428 20.89 55.2828 19.37 55.2828 17.63C55.2828 15.87 55.6328 14.35 56.3328 13.07C57.0528 11.77 58.0528 10.78 59.3328 10.1C60.6128 9.4 62.0728 9.05 63.7128 9.05C65.3728 9.05 66.8328 9.39 68.0928 10.07C69.3528 10.75 70.3228 11.71 71.0028 12.95C71.7028 14.17 72.0528 15.58 72.0528 17.18ZM66.8628 16.4C66.8828 15.3 66.5828 14.48 65.9628 13.94C65.3628 13.38 64.6128 13.1 63.7128 13.1C62.7728 13.1 61.9928 13.38 61.3728 13.94C60.7528 14.5 60.4028 15.32 60.3228 16.4H66.8628ZM82.557 9.05C84.217 9.05 85.697 9.4 86.997 10.1C88.317 10.78 89.347 11.77 90.087 13.07C90.847 14.37 91.227 15.89 91.227 17.63C91.227 19.37 90.847 20.89 90.087 22.19C89.347 23.49 88.317 24.49 86.997 25.19C85.697 25.87 84.217 26.21 82.557 26.21C80.897 26.21 79.407 25.87 78.087 25.19C76.767 24.49 75.727 23.49 74.967 22.19C74.227 20.89 73.857 19.37 73.857 17.63C73.857 15.89 74.227 14.37 74.967 13.07C75.727 11.77 76.767 10.78 78.087 10.1C79.407 9.4 80.897 9.05 82.557 9.05ZM82.557 13.49C81.577 13.49 80.747 13.85 80.067 14.57C79.407 15.27 79.077 16.29 79.077 17.63C79.077 18.97 79.407 19.99 80.067 20.69C80.747 21.39 81.577 21.74 82.557 21.74C83.537 21.74 84.357 21.39 85.017 20.69C85.677 19.99 86.007 18.97 86.007 17.63C86.007 16.29 85.677 15.27 85.017 14.57C84.357 13.85 83.537 13.49 82.557 13.49ZM104.507 9.08C106.427 9.08 107.947 9.72 109.067 11C110.207 12.28 110.777 14.04 110.777 16.28V26H105.647V16.88C105.647 15.76 105.347 14.89 104.747 14.27C104.167 13.63 103.387 13.31 102.407 13.31C101.367 13.31 100.537 13.64 99.9172 14.3C99.3172 14.96 99.0172 15.9 99.0172 17.12V26H93.8872V9.26H99.0172V12.32C99.4972 11.32 100.207 10.53 101.147 9.95C102.107 9.37 103.227 9.08 104.507 9.08Z" fill="#D7E1EC"/>
<circle cx="77.5" cy="4.5" r="2.5" fill="#FF8C68"/>
<circle cx="87.5" cy="4.5" r="2.5" fill="#FF8C68"/>
<path d="M13.1075 18.2097L0.0273438 26H26.215L13.1075 18.2097Z" fill="url(#paint0_linear)"/>
<path d="M13.1075 18.2418V3L0 26L13.1075 18.2418Z" fill="url(#paint1_linear)"/>
<path d="M13.1076 18.2418V3L26.2151 26L13.1076 18.2418Z" fill="url(#paint2_linear)"/>
<defs>
<linearGradient id="paint0_linear" x1="9.27418" y1="20.1882" x2="11.206" y2="28.9536" gradientUnits="userSpaceOnUse">
<stop stop-color="#3796AB"/>
<stop offset="1" stop-color="#7DE1F7"/>
</linearGradient>
<linearGradient id="paint1_linear" x1="12.1183" y1="4.36022" x2="-8.38951e-08" y2="24.8871" gradientUnits="userSpaceOnUse">
<stop stop-color="#787879"/>
<stop offset="1" stop-color="#3D424A"/>
</linearGradient>
<linearGradient id="paint2_linear" x1="18.5484" y1="12.0269" x2="13.1076" y2="18.9516" gradientUnits="userSpaceOnUse">
<stop stop-color="#565E65"/>
<stop offset="1" stop-color="#292C31"/>
</linearGradient>
</defs>
</svg>
