<svg width="112" height="30" viewBox="0 0 112 30" fill="none" xmlns="http://www.w3.org/2000/svg">
<path d="M51.86 26H47.63L38.15 11.6V26H33.92V4.82H38.15L47.63 19.34V4.82H51.86V26ZM71.3176 17.06C71.3176 17.48 71.2676 17.96 71.1676 18.5H58.9876C59.0476 19.98 59.4476 21.07 60.1876 21.77C60.9276 22.47 61.8476 22.82 62.9476 22.82C63.9276 22.82 64.7376 22.58 65.3776 22.1C66.0376 21.62 66.4576 20.97 66.6376 20.15H71.1076C70.8876 21.31 70.4176 22.35 69.6976 23.27C68.9776 24.19 68.0476 24.91 66.9076 25.43C65.7876 25.95 64.5376 26.21 63.1576 26.21C61.5376 26.21 60.0976 25.87 58.8376 25.19C57.5776 24.49 56.5976 23.5 55.8976 22.22C55.1976 20.94 54.8476 19.43 54.8476 17.69C54.8476 15.95 55.1976 14.44 55.8976 13.16C56.5976 11.86 57.5776 10.87 58.8376 10.19C60.0976 9.51 61.5376 9.17 63.1576 9.17C64.7976 9.17 66.2276 9.51 67.4476 10.19C68.6876 10.87 69.6376 11.81 70.2976 13.01C70.9776 14.19 71.3176 15.54 71.3176 17.06ZM67.0576 16.64C67.1176 15.28 66.7576 14.25 65.9776 13.55C65.2176 12.85 64.2776 12.5 63.1576 12.5C62.0176 12.5 61.0576 12.85 60.2776 13.55C59.4976 14.25 59.0676 15.28 58.9876 16.64H67.0576ZM82.0004 9.17C83.6204 9.17 85.0704 9.51 86.3504 10.19C87.6504 10.87 88.6704 11.86 89.4104 13.16C90.1504 14.44 90.5204 15.95 90.5204 17.69C90.5204 19.43 90.1504 20.94 89.4104 22.22C88.6704 23.5 87.6504 24.49 86.3504 25.19C85.0704 25.87 83.6204 26.21 82.0004 26.21C80.3804 26.21 78.9204 25.87 77.6204 25.19C76.3404 24.49 75.3304 23.5 74.5904 22.22C73.8504 20.94 73.4804 19.43 73.4804 17.69C73.4804 15.95 73.8504 14.44 74.5904 13.16C75.3304 11.86 76.3404 10.87 77.6204 10.19C78.9204 9.51 80.3804 9.17 82.0004 9.17ZM82.0004 12.83C80.8204 12.83 79.8204 13.25 79.0004 14.09C78.1804 14.91 77.7704 16.11 77.7704 17.69C77.7704 19.27 78.1804 20.48 79.0004 21.32C79.8204 22.14 80.8204 22.55 82.0004 22.55C83.1804 22.55 84.1804 22.14 85.0004 21.32C85.8204 20.48 86.2304 19.27 86.2304 17.69C86.2304 16.11 85.8204 14.91 85.0004 14.09C84.1804 13.25 83.1804 12.83 82.0004 12.83ZM103.41 9.14C105.33 9.14 106.86 9.77 108 11.03C109.14 12.29 109.71 14.06 109.71 16.34V26H105.51V16.82C105.51 15.5 105.17 14.48 104.49 13.76C103.81 13.02 102.88 12.65 101.7 12.65C100.5 12.65 99.5398 13.04 98.8198 13.82C98.0998 14.6 97.7398 15.72 97.7398 17.18V26H93.5098V9.38H97.7398V12.71C98.1798 11.59 98.8998 10.72 99.8998 10.1C100.92 9.46 102.09 9.14 103.41 9.14Z" fill="#31456A"/>
<circle cx="76.5" cy="4.5" r="2.5" fill="#FF8C68"/>
<circle cx="86.5" cy="4.5" r="2.5" fill="#FF8C68"/>
<path d="M13.1075 18.2097L0.0273438 26H26.215L13.1075 18.2097Z" fill="url(#paint0_linear)"/>
<path d="M13.1075 18.2418V3L0 26L13.1075 18.2418Z" fill="url(#paint1_linear)"/>
<path d="M13.1076 18.2418V3L26.2151 26L13.1076 18.2418Z" fill="url(#paint2_linear)"/>
<defs>
<linearGradient id="paint0_linear" x1="9.27418" y1="20.1882" x2="11.206" y2="28.9536" gradientUnits="userSpaceOnUse">
<stop stop-color="#41B7D1"/>
<stop offset="1" stop-color="#C7ECF4"/>
</linearGradient>
<linearGradient id="paint1_linear" x1="12.1183" y1="4.36022" x2="-8.38951e-08" y2="24.8871" gradientUnits="userSpaceOnUse">
<stop stop-color="#798BAE"/>
<stop offset="1" stop-color="#545E70"/>
</linearGradient>
<linearGradient id="paint2_linear" x1="18.5484" y1="12.0269" x2="13.1076" y2="18.9516" gradientUnits="userSpaceOnUse">
<stop stop-color="#6A7385"/>
<stop offset="1" stop-color="#3A4A67"/>
</linearGradient>
</defs>
</svg>
